# xmcd CD database file
#
# Track frame offsets:
#	150
#	20352
#	38270
#	52150
#	71550
#	89042
#	101260
#	120200
#	149487
#	170640
#	189417
#	214940
#	243795
#	269715
#
# Disc length: 3889 seconds
#
# Revision: 0
# Processed by: cddbd v1.5.2PL0 Copyright (c) Steve Scherf et al.
# Submitted via: CDex 1.51
#
DISCID=c50f2f0e
DTITLE=fox capture plan - COVERMIND
DYEAR=2015
DGENRE=Jazz
TTITLE0=Born Slippy (Underworld)
TTITLE1=Right Here, Right Now (Fatboy Slim)
TTITLE2=Basket Case (Green Day)
TTITLE3=Tonight, Tonight (The Smashing Pumpkins)
TTITLE4=Carnival (The Cardigans)
TTITLE5=Buddy Holly (weezer)
TTITLE6=Wonderwall (oasis)
TTITLE7=Paranoid Android (radiohead)
TTITLE8=Stinkfist (Tool)
TTITLE9=Freak on a Leash (korn)
TTITLE10=Teardrop (Massive Attack)
TTITLE11=Californication (Red Hot Chili Pepperes)
TTITLE12=Hyperballad (bjork)
TTITLE13=Don't Look Back in Anger (oasis)
EXTD=YEAR: 2015
EXTT0=
EXTT1=
EXTT2=
EXTT3=
EXTT4=
EXTT5=
EXTT6=
EXTT7=
EXTT8=
EXTT9=
EXTT10=
EXTT11=
EXTT12=
EXTT13=
PLAYORDER=
